<?xml version="1.0" standalone="no"?>
<!DOCTYPE svg PUBLIC "-//W3C//DTD SVG 20010904//EN"
 "http://www.w3.org/TR/2001/REC-SVG-20010904/DTD/svg10.dtd">
<svg version="1.0" xmlns="http://www.w3.org/2000/svg"
 width="150.000000pt" height="150.000000pt" viewBox="0 0 150.000000 150.000000"
 preserveAspectRatio="xMidYMid meet">

<g transform="translate(0.000000,150.000000) scale(0.100000,-0.100000)"
fill="#000000" stroke="none">
<path d="M687 1170 c-9 -11 -17 -27 -17 -35 0 -19 -14 -19 -30 0 -7 9 -15 13
-18 11 -6 -7 46 -53 81 -71 47 -26 33 -97 -23 -118 -8 -3 21 -5 65 -5 44 0 73
2 65 5 -43 16 -66 75 -42 108 13 18 56 32 90 30 28 -2 30 -1 16 10 -13 9 -26
9 -51 2 -42 -13 -50 -5 -29 28 9 14 12 25 7 25 -5 0 -12 8 -14 18 -3 11 -5 7
-6 -10 0 -15 -5 -39 -11 -53 -8 -22 -15 -26 -41 -23 -45 4 -58 30 -36 68 21
35 19 39 -6 10z"/>
<path d="M827 1163 c-12 -12 -7 -19 12 -19 15 0 17 3 9 13 -12 15 -13 15 -21
6z"/>
<path d="M905 1139 c-9 -14 -2 -20 14 -10 8 6 9 11 3 15 -6 3 -14 1 -17 -5z"/>
<path d="M556 1121 c-3 -5 1 -11 9 -14 9 -4 12 -1 8 9 -6 16 -10 17 -17 5z"/>
<path d="M826 1038 c5 -7 1 -9 -9 -5 -10 3 -17 2 -17 -3 0 -6 7 -10 16 -10 10
0 13 -6 10 -18 -4 -13 -1 -18 14 -18 11 0 20 4 20 8 0 4 9 8 20 8 11 0 20 4
20 9 0 4 -12 6 -27 3 -22 -4 -25 -2 -21 15 4 13 0 19 -14 20 -11 1 -16 -3 -12
-9z"/>
<path d="M421 924 c0 -11 3 -14 6 -6 3 7 2 16 -1 19 -3 4 -6 -2 -5 -13z"/>
<path d="M480 921 c-12 -24 -13 -34 -1 -27 9 6 22 46 15 46 -2 0 -8 -9 -14
-19z"/>
<path d="M535 899 c-4 -6 -5 -12 -2 -15 2 -3 7 2 10 11 7 17 1 20 -8 4z"/>
<path d="M660 904 c0 -6 7 -19 16 -30 14 -18 14 -18 3 6 -14 31 -19 36 -19 24z"/>
<path d="M222 880 c0 -14 2 -19 5 -12 2 6 2 18 0 25 -3 6 -5 1 -5 -13z"/>
<path d="M346 883 c-6 -14 -5 -15 5 -6 7 7 10 15 7 18 -3 3 -9 -2 -12 -12z"/>
<path d="M501 884 c0 -11 3 -14 6 -6 3 7 2 16 -1 19 -3 4 -6 -2 -5 -13z"/>
<path d="M711 874 c0 -11 3 -14 6 -6 3 7 2 16 -1 19 -3 4 -6 -2 -5 -13z"/>
<path d="M1045 878 c-9 -25 -25 -144 -25 -184 0 -60 -58 -107 -96 -79 -17 12
-15 16 29 64 26 27 47 54 47 60 0 39 -38 53 -81 31 -52 -28 -69 -141 -27 -180
24 -22 64 -26 102 -8 23 10 28 8 47 -15 11 -15 29 -27 40 -27 22 0 26 28 4 36
-37 15 -40 105 -9 282 5 25 3 32 -10 32 -9 0 -19 -6 -21 -12z m-105 -163 c-13
-14 -25 -23 -27 -21 -8 8 22 46 36 46 10 0 7 -8 -9 -25z"/>
<path d="M616 863 c-6 -14 -5 -15 5 -6 7 7 10 15 7 18 -3 3 -9 -2 -12 -12z"/>
<path d="M237 819 c-56 -33 -69 -158 -21 -210 21 -24 25 -76 5 -75 -20 1 -25
-20 -5 -28 27 -10 69 16 68 43 -1 15 11 35 30 52 25 22 28 30 19 40 -10 10
-17 9 -32 -5 -61 -55 -112 77 -53 137 24 23 52 17 52 -13 0 -23 28 -28 36 -6
6 16 -12 56 -30 68 -16 11 -48 9 -69 -3z"/>
<path d="M1275 790 c-8 -14 3 -30 21 -30 8 0 14 9 14 20 0 21 -24 28 -35 10z"/>
<path d="M422 764 c-53 -37 -69 -124 -29 -168 26 -30 38 -32 95 -22 40 7 45
12 64 55 20 47 45 81 60 81 4 0 8 -35 8 -78 0 -53 5 -84 15 -98 8 -10 15 -28
15 -40 0 -25 30 -54 55 -54 32 0 84 43 105 86 19 39 51 207 43 229 -3 8 -62
12 -105 6 -16 -2 -58 -57 -64 -83 -7 -34 18 -78 44 -78 9 0 29 7 45 14 23 13
27 13 27 0 0 -8 -8 -14 -18 -14 -10 0 -41 -11 -67 -25 -61 -30 -67 -24 -59 70
8 84 -4 101 -61 92 -26 -4 -35 -2 -35 9 0 8 -6 14 -14 14 -9 0 -18 -22 -26
-65 -9 -46 -19 -70 -33 -80 -27 -19 -51 -19 -66 -1 -9 10 -1 23 34 58 30 30
45 54 45 71 0 38 -39 49 -78 21z m38 -32 c0 -12 -39 -46 -45 -41 -6 7 24 49
36 49 5 0 9 -4 9 -8z m334 -8 c14 -5 14 -9 0 -35 -15 -30 -58 -58 -70 -46 -10
9 4 54 22 71 17 17 25 19 48 10z m-14 -176 c0 -19 -52 -68 -73 -68 -32 0 -17
43 23 62 41 21 50 22 50 6z"/>
<path d="M1127 744 c-15 -15 -32 -44 -38 -65 -10 -32 -9 -42 5 -64 31 -48 91
-50 132 -4 24 27 34 24 34 -10 0 -16 7 -34 15 -41 8 -7 15 -11 16 -9 5 21 6
180 0 183 -4 3 -26 -20 -49 -50 -49 -63 -83 -84 -107 -64 -21 18 -19 53 6 84
20 25 22 26 35 9 11 -15 15 -16 23 -4 13 20 -2 55 -26 59 -11 2 -31 -9 -46
-24z"/>
<path d="M196 385 c-3 -9 -6 -22 -5 -28 0 -7 5 -1 10 12 5 13 8 26 5 28 -2 2
-6 -3 -10 -12z"/>
<path d="M235 389 c-4 -6 -5 -12 -2 -15 2 -3 7 2 10 11 7 17 1 20 -8 4z"/>
<path d="M266 385 c-3 -9 -6 -22 -5 -28 0 -7 5 -1 10 12 5 13 8 26 5 28 -2 2
-6 -3 -10 -12z"/>
<path d="M331 384 c0 -11 3 -14 6 -6 3 7 2 16 -1 19 -3 4 -6 -2 -5 -13z"/>
<path d="M365 389 c-4 -6 -5 -12 -2 -15 2 -3 7 2 10 11 7 17 1 20 -8 4z"/>
<path d="M476 385 c-3 -9 -6 -22 -5 -28 0 -7 5 -1 10 12 5 13 8 26 5 28 -2 2
-6 -3 -10 -12z"/>
<path d="M540 394 c0 -5 7 -18 15 -28 8 -11 15 -16 15 -10 0 5 -7 18 -15 28
-8 11 -15 16 -15 10z"/>
<path d="M681 384 c0 -11 3 -14 6 -6 3 7 2 16 -1 19 -3 4 -6 -2 -5 -13z"/>
<path d="M715 389 c-4 -6 -5 -12 -2 -15 2 -3 7 2 10 11 7 17 1 20 -8 4z"/>
<path d="M766 385 c-3 -9 -6 -22 -5 -28 0 -7 5 -1 10 12 5 13 8 26 5 28 -2 2
-6 -3 -10 -12z"/>
<path d="M925 389 c-4 -6 -5 -12 -2 -15 2 -3 7 2 10 11 7 17 1 20 -8 4z"/>
<path d="M1205 389 c-4 -6 -5 -12 -2 -15 2 -3 7 2 10 11 7 17 1 20 -8 4z"/>
<path d="M1292 375 c-6 -14 -8 -25 -3 -25 8 0 23 41 17 47 -1 2 -8 -8 -14 -22z"/>
<path d="M295 379 c-4 -6 -5 -12 -2 -15 2 -3 7 2 10 11 7 17 1 20 -8 4z"/>
<path d="M645 379 c-4 -6 -5 -12 -2 -15 2 -3 7 2 10 11 7 17 1 20 -8 4z"/>
<path d="M421 364 c0 -11 3 -14 6 -6 3 7 2 16 -1 19 -3 4 -6 -2 -5 -13z"/>
<path d="M951 364 c0 -11 3 -14 6 -6 3 7 2 16 -1 19 -3 4 -6 -2 -5 -13z"/>
<path d="M1076 363 c-6 -14 -5 -15 5 -6 7 7 10 15 7 18 -3 3 -9 -2 -12 -12z"/>
</g>
</svg>
